<svg width="18" height="18" viewBox="0 0 18 18" fill="none" xmlns="http://www.w3.org/2000/svg">
<path fill-rule="evenodd" clip-rule="evenodd" d="M13 0.947388H5C2.23858 0.947388 0 3.06815 0 5.68423V13.2632C0 15.8793 2.23858 18 5 18H13C15.7614 18 18 15.8793 18 13.2632V5.68423C18 3.06815 15.7614 0.947388 13 0.947388ZM16.25 13.2632C16.2445 14.9615 14.7926 16.337 13 16.3422H5C3.20735 16.337 1.75549 14.9615 1.75 13.2632V5.68425C1.75549 3.98595 3.20735 2.6105 5 2.60529H13C14.7926 2.6105 16.2445 3.98595 16.25 5.68425V13.2632ZM13.75 5.92106C14.3023 5.92106 14.75 5.49691 14.75 4.97371C14.75 4.4505 14.3023 4.02635 13.75 4.02635C13.1977 4.02635 12.75 4.4505 12.75 4.97371C12.75 5.49691 13.1977 5.92106 13.75 5.92106ZM8.99999 5.21063C6.51472 5.21063 4.5 7.11931 4.5 9.47377C4.5 11.8282 6.51472 13.7369 8.99999 13.7369C11.4853 13.7369 13.5 11.8282 13.5 9.47377C13.5027 8.34235 13.0294 7.25653 12.1849 6.45649C11.3404 5.65645 10.1943 5.20811 8.99999 5.21063ZM6.25 9.47374C6.25 10.9126 7.48122 12.079 9 12.079C10.5188 12.079 11.75 10.9126 11.75 9.47374C11.75 8.03489 10.5188 6.86847 9 6.86847C7.48122 6.86847 6.25 8.03489 6.25 9.47374Z" fill="#9A9A9A"/>
</svg>
