<svg width="22" height="18" viewBox="0 0 22 18" fill="none" xmlns="http://www.w3.org/2000/svg">
<path fill-rule="evenodd" clip-rule="evenodd" d="M19.125 0.947388H2.125C0.951395 0.947388 0 1.84871 0 2.96055V15.0395C0 16.1514 0.951395 17.0527 2.125 17.0527H19.125C20.2986 17.0527 21.25 16.1514 21.25 15.0395V2.96055C21.25 1.84871 20.2986 0.947388 19.125 0.947388ZM19.125 2.96057V5.87965L11.3156 11.0635C10.9003 11.3366 10.3497 11.3366 9.93437 11.0635L2.125 5.87965V2.96057H19.125ZM2.125 7.99344V15.0395H19.125V7.99344L12.3781 12.4627C11.3252 13.1599 9.92476 13.1599 8.87187 12.4627L2.125 7.99344Z" fill="#9A9A9A"/>
</svg>
