<svg width="8" height="4" viewBox="0 0 8 4" fill="none" xmlns="http://www.w3.org/2000/svg">
<path d="M7.23151 0.0522709C7.26906 0.0188172 7.32017 -2.97164e-08 7.37349 -2.73857e-08C7.42681 -2.50551e-08 7.47792 0.0188172 7.51547 0.0522709L7.9394 0.426899C7.97807 0.458966 8 0.503738 8 0.550597C8 0.597455 7.97807 0.642227 7.9394 0.674294L4.26396 3.92225C4.20776 3.97197 4.13152 3.99994 4.05199 4L3.94801 4C3.86848 3.99994 3.79224 3.97197 3.73604 3.92225L0.0605979 0.674294C0.0219331 0.642227 -2.61156e-08 0.597455 -2.40673e-08 0.550596C-2.20191e-08 0.503737 0.0219331 0.458966 0.0605979 0.426898L0.484534 0.0522706C0.522081 0.0188169 0.573193 -3.24636e-07 0.626512 -3.22305e-07C0.679832 -3.19975e-07 0.730943 0.0188169 0.76849 0.0522706L4 2.90792L7.23151 0.0522709Z" fill="#9A9A9A"/>
</svg>
