<svg width="34" height="20" viewBox="0 0 34 20" fill="none" xmlns="http://www.w3.org/2000/svg">
<path fill-rule="evenodd" clip-rule="evenodd" d="M10 0H23.3333C28.8562 0 33.3333 4.47715 33.3333 10C33.3333 15.5228 28.8562 20 23.3333 20H10C4.47715 20 0 15.5228 0 10C0 4.47715 4.47715 0 10 0ZM3.33337 9.99998C3.33337 13.6819 6.31814 16.6666 10 16.6666C11.7682 16.6666 13.4638 15.9643 14.7141 14.714C15.9643 13.4638 16.6667 11.7681 16.6667 9.99998C16.6667 6.31808 13.6819 3.33331 10 3.33331C6.31814 3.33331 3.33337 6.31808 3.33337 9.99998Z" fill="#3D3D3D"/>
</svg>
