<svg width="20" height="18" viewBox="0 0 20 18" fill="none" xmlns="http://www.w3.org/2000/svg">
<path d="M19.9708 3.2815C19.4547 3.93362 18.8309 4.50247 18.1235 4.96609C18.1235 5.13644 18.1235 5.30679 18.1235 5.4866C18.1292 8.58016 16.8249 11.5465 14.5029 13.7206C12.181 15.8947 9.03567 17.0947 5.77211 17.0516C3.88538 17.0575 2.02281 16.6494 0.330301 15.8591C0.239042 15.8213 0.18018 15.7358 0.180527 15.6414V15.5373C0.180527 15.4014 0.296758 15.2913 0.440136 15.2913C2.29475 15.2334 4.0832 14.6242 5.55244 13.5499C3.87376 13.5179 2.36338 12.5758 1.66829 11.1271C1.63318 11.048 1.64411 10.9572 1.69713 10.8877C1.75016 10.8181 1.83761 10.7797 1.9279 10.7864C2.43809 10.835 2.95337 10.79 3.44561 10.6539C1.59249 10.2895 0.200074 8.83202 0.000797149 7.04816C-0.00628542 6.96258 0.0341943 6.87969 0.107613 6.82944C0.181031 6.77918 0.276775 6.76882 0.360256 6.80209C0.857554 7.00998 1.39439 7.11947 1.93788 7.12387C0.314106 6.1142 -0.387258 4.19376 0.230452 2.44867C0.294214 2.2791 0.447402 2.15383 0.633723 2.1189C0.820043 2.08397 1.01201 2.14453 1.13908 2.27832C3.33027 4.48766 6.34099 5.8042 9.53645 5.95034C9.4546 5.64092 9.41434 5.32293 9.41663 5.00394C9.44652 3.33131 10.5389 1.8413 12.1825 1.23147C13.826 0.621638 15.6953 1.01269 16.9153 2.22154C17.747 2.07145 18.551 1.80681 19.3018 1.43603C19.3568 1.4035 19.4265 1.4035 19.4815 1.43603C19.5158 1.48816 19.5158 1.55426 19.4815 1.60638C19.1178 2.3953 18.5035 3.05699 17.7241 3.49917C18.4066 3.42419 19.0771 3.27168 19.7211 3.0449C19.7754 3.00993 19.8466 3.00993 19.9009 3.0449C19.9463 3.06459 19.9802 3.10225 19.9937 3.14783C20.0072 3.19342 19.9988 3.24232 19.9708 3.2815Z" fill="#9A9A9A"/>
</svg>
